<svg width="33" height="23" viewBox="0 0 33 23" fill="none" xmlns="http://www.w3.org/2000/svg">
<path d="M26.7882 9.58333C26.9824 9.00833 27.1765 8.43333 27.1765 7.66667C27.1765 3.45 23.6824 0 19.4118 0C16.5 0 13.7824 1.725 12.6176 4.21667C12.0353 4.025 11.2588 3.83333 10.6765 3.83333C7.95882 3.83333 5.82353 5.94167 5.82353 8.625C5.82353 9.00833 5.82353 9.39167 6.01765 9.58333C2.52353 10.1583 0 12.8417 0 16.2917C0 19.9333 3.10588 23 6.79412 23H13.5882V17.25H7.76471L16.5 8.625L25.2353 17.25H19.4118V23H26.2059C29.8941 23 33 19.9333 33 16.2917C33 12.8417 30.2824 9.96667 26.7882 9.58333Z" fill="#0A4D50" fill-opacity="0.5"/>
</svg>
