<svg width="26" height="26" viewBox="0 0 26 26" fill="none" xmlns="http://www.w3.org/2000/svg">
<circle cx="13" cy="13" r="13" fill="#D4B581"/>
<path d="M17.3094 12.7353C17.3841 12.5112 17.4588 12.2871 17.4588 11.9882C17.4588 10.3447 16.1141 9 14.4706 9C13.35 9 12.3041 9.67235 11.8559 10.6435C11.6318 10.5688 11.3329 10.4941 11.1088 10.4941C10.0629 10.4941 9.24118 11.3159 9.24118 12.3618C9.24118 12.5112 9.24118 12.6606 9.31588 12.7353C7.97118 12.9594 7 14.0053 7 15.35C7 16.7694 8.19529 17.9647 9.61471 17.9647H12.2294V15.7235H9.98824L13.35 12.3618L16.7118 15.7235H14.4706V17.9647H17.0853C18.5047 17.9647 19.7 16.7694 19.7 15.35C19.7 14.0053 18.6541 12.8847 17.3094 12.7353Z" fill="white"/>
</svg>
