<svg width="69" height="81" viewBox="0 0 69 81" fill="none" xmlns="http://www.w3.org/2000/svg">
<path fill-rule="evenodd" clip-rule="evenodd" d="M34.0546 18.4307H36.4485V20.5704H34.0546V18.4307ZM31.3218 18.4307H33.7157V20.5704H31.3218V18.4307ZM34.0546 15.8674H36.4485V18.007H34.0546V15.8674ZM31.3218 15.8674H33.7369V18.007H31.3218V15.8674ZM38.3975 19.723C41.1092 22.3711 41.7235 21.6932 44.2869 20.2314C46.3418 19.0663 49.4771 20.3585 50.5364 22.0533C43.7785 25.0827 45.8757 21.2695 43.0794 22.3499L44.0115 23.2185C45.1555 24.0659 46.596 24.5531 48.1001 24.3836C49.5619 24.2142 51.9134 22.9431 52.6125 21.9686C44.2869 15.7826 43.3548 20.6763 41.5117 20.6551C40.283 20.1255 39.5203 19.0875 38.3975 19.723ZM35.4105 8.34679C36.1308 4.10984 35.3046 3.70733 39.139 2.01255C40.0711 7.24519 38.1009 7.96547 34.7961 9.53314C34.669 10.9949 34.3512 12.732 35.1351 13.6642C35.7071 12.6261 35.5588 11.8423 35.6435 10.4017C38.7577 8.02902 40.855 9.04589 40.0287 0.0211848C37.5713 0.741466 35.1351 2.41506 34.7326 5.16908C34.3512 7.94428 34.8809 7.81717 35.4105 8.34679ZM43.0794 14.1302C45.4732 14.9564 44.9436 11.3338 50.4728 14.4692C45.9605 19.384 43.503 14.6175 41.2786 14.9776C40.9609 15.0412 40.1347 15.4225 39.7322 15.6767L38.4823 16.736C40.4101 17.4774 40.3041 15.6979 41.7871 15.8674C42.7828 15.9945 43.6302 17.3503 45.2614 17.5833C47.8459 17.9435 51.0024 15.4225 52.676 14.5539C50.9813 12.0118 46.9562 10.8254 43.4183 13.7277C43.3759 13.7701 43.27 13.9819 43.2488 13.9184C43.2065 13.876 43.1217 14.0667 43.0794 14.1302ZM41.5964 28.6206C39.2449 25.8666 43.5666 23.5363 37.3807 21.333C37.7196 23.1126 38.5034 22.4135 39.8805 23.854C39.9016 26.8834 39.6686 28.663 41.7235 29.9976C42.9522 30.8026 45.2826 32.1796 46.7443 32.6033C46.9138 27.519 46.1511 25.4641 42.0201 24.0023C42.2531 26.7352 45.9817 24.4896 45.3461 30.8874C44.3081 30.506 42.1896 29.3197 41.5964 28.6206ZM17.2763 14.4268C22.9538 11.4186 22.1488 14.9564 24.7122 14.1302C24.4791 13.8548 24.6274 13.9396 24.1826 13.5794C23.0174 12.6261 21.1531 11.8423 19.649 12.0329C18.1237 12.2236 15.8358 13.6006 15.0943 14.5327C16.2171 15.1683 18.6957 16.8207 20.0515 17.3291C22.8267 18.3672 24.2673 16.5029 26.2375 15.7826C26.5129 15.8038 27.7204 16.8207 28.5678 16.9054C29.1398 16.969 29.055 16.8207 29.3093 16.736C29.0762 16.5029 29.055 16.4394 28.6949 16.1428L26.4917 14.9776C24.924 14.7234 21.026 19.1934 17.2763 14.4268ZM33.0166 9.51195C29.5635 8.07139 27.8687 7.01215 28.6525 2.01255C33.9064 4.25814 30.9829 4.91486 32.5929 8.15613C33.3344 7.37229 32.953 9.63906 33.1649 6.69438C33.1861 6.3978 33.0802 5.10553 33.0166 4.78775C32.8471 3.77089 32.4022 3.09297 31.8726 2.54217C31.0676 1.73715 28.9915 0.381326 27.7204 0C26.9366 11.2279 30.9405 8.1985 32.1268 10.4017C32.3175 12.0541 31.9574 12.4566 32.6141 13.6642C33.4827 12.6897 33.1649 11.927 33.0166 9.51195ZM17.2551 22.0321C17.8483 21.1636 16.8103 22.1169 17.9966 21.1848C24.1826 16.3334 23.5682 24.7226 29.394 19.723C28.3348 19.0451 27.4874 20.062 26.2375 20.6128C24.6698 20.6975 22.7632 15.8462 15.2002 21.9686C15.8146 22.9007 18.4203 24.3201 19.9456 24.426C21.8946 24.5531 23.7589 23.282 24.691 22.3287C22.5513 21.5025 23.0598 24.8709 17.2551 22.0321ZM25.7502 12.4778C25.4325 9.74499 21.9582 12.1389 22.403 5.55041C23.7377 5.95292 25.3689 6.92741 26.1739 7.85954C28.7585 10.9101 23.8436 12.1389 30.3473 15.1047C30.199 13.3888 29.2669 13.9396 27.9323 12.6261C27.8687 9.57551 28.2712 8.17731 26.0256 6.5249C25.1359 5.86818 22.403 4.21577 21.0896 3.91918C21.0472 7.69006 20.3057 10.2746 25.7502 12.4778ZM28.5042 34.4252C28.5678 28.8324 28.8432 28.9172 32.9954 26.9258C33.2708 24.8709 33.5462 23.7269 32.4446 22.7736L32.1268 26.0996C30.8558 28.5359 27.212 24.5743 27.7628 36.4801C29.0339 36.0776 31.3854 34.6794 32.0845 33.8109C32.8895 32.8364 33.8004 29.6163 32.5929 28.324C31.8514 29.9341 33.0802 33.1118 28.5042 34.4252ZM27.8899 23.8328C29.2033 22.5194 30.0931 23.0278 30.3473 21.1848L26.9578 23.4515C26.8095 26.3538 27.9958 28.9807 22.4454 30.8874C21.7675 24.4896 25.496 26.608 25.7502 23.9811C20.9625 26.1208 20.8142 27.9003 21.1743 32.6033C27.9746 29.4044 27.8899 29.0443 27.8899 23.8328ZM40.8126 13.0074C41.1304 10.1263 39.7322 7.47822 45.3673 5.57159C46.1723 12.0329 42.1049 9.63906 42.0625 12.4566C46.1723 10.9101 46.8291 9.0247 46.7231 3.89799C45.3673 4.21577 42.5497 5.93173 41.5964 6.69438C39.5627 8.32561 40.4313 10.0628 39.7957 12.6685L38.4399 13.6218C37.3807 14.3844 37.8043 13.9184 37.2959 15.1259C39.0754 14.4692 39.6686 14.1938 40.8126 13.0074ZM34.8173 31.6712C35.2834 34.1074 37.7408 35.6539 40.0076 36.4166C41.3846 26.2267 36.8087 27.7944 35.7706 26.2267C35.4105 24.8073 35.8765 24.3413 35.1563 22.7948C34.33 23.7693 34.6478 25.57 34.8385 26.8834C38.9907 29.2773 39.2025 28.2605 39.2873 34.4252C34.5631 33.2389 36.5756 30.8662 35.1986 28.2605C35.1351 28.3028 34.0758 27.7732 34.8173 31.6712Z" fill="#D4B581"/>
<path d="M0.237867 66.1685C2.82043 66.0326 3.0583 65.4549 3.0583 62.7365V50.911C3.0583 48.2605 2.82043 47.6828 0 47.5129V47.0712H7.71371V47.5129C4.99522 47.6828 4.75735 48.2605 4.75735 50.911V56.314C5.36901 56.1781 6.11659 55.8383 6.86418 55.2946C9.20887 53.3916 13.1167 49.144 13.1167 48.3285C13.1167 47.8867 12.607 47.7848 11.0099 47.5129V47.0712H18.6556V47.5129C16.4808 47.8187 15.3595 48.4644 13.7963 49.8236C12.8449 50.6392 9.82053 53.3577 7.40788 55.7703C9.82053 58.4548 14.0342 62.8044 15.1216 63.7899C17.0585 65.5229 17.5682 65.9646 19.1993 66.1685V66.6103H15.3255C12.1652 63.3821 9.8885 61.1393 6.79622 57.6733C6.25252 57.1296 5.84475 56.8577 5.26707 56.8577C5.09716 56.8577 4.92726 56.8917 4.75735 56.9257V62.7704C4.79133 65.4889 4.99522 66.0666 7.84963 66.2025V66.6443H0.237867V66.1685Z" fill="white"/>
<path d="M29.9713 66.9501C29.9034 66.9501 29.2917 66.7122 28.9859 66.3724C28.6121 65.9646 28.4762 65.5908 28.3063 64.9112C27.083 65.8627 25.6897 66.9501 24.5344 66.9501C22.3936 66.9501 20.9324 65.319 20.9324 63.3821C20.9324 61.9888 21.8838 60.9694 24.0586 60.3238C25.6557 59.848 27.6266 59.1004 28.3403 58.6587C28.3403 57.1295 28.3063 54.4111 25.5198 54.4111C25.0101 54.445 23.345 54.581 22.8013 57.0616C22.7334 57.2655 22.5635 57.6053 22.1217 57.6053C21.68 57.6053 21.1702 57.1635 21.1702 56.5519C21.1702 56.0761 21.544 55.7023 22.0538 55.4305C22.8353 54.8868 24.9082 53.6295 26.4373 53.2897C27.9665 53.2897 29.9034 54.2751 29.9034 57.0276V63.7219C29.9034 65.0132 30.3791 65.4889 31.0248 65.4889C31.5685 65.4889 32.0442 65.285 32.384 65.0811L32.6558 65.6248L29.9713 66.9501ZM28.3063 59.4742C27.6606 59.848 25.6897 60.5956 25.0101 60.8675C23.6169 61.4112 22.7674 61.9888 22.7674 63.1442C22.7674 64.7753 24.0926 65.5908 25.214 65.5908C26.2674 65.5908 27.6606 64.8093 28.3403 63.9937V59.4742H28.3063Z" fill="white"/>
<path d="M33.1995 66.1685C35.2044 66.0326 35.5102 65.5908 35.5102 63.6879V49.076C35.5102 46.9352 35.2724 46.6973 33.2675 46.5274V46.1536C34.7966 45.9497 36.4957 45.406 37.0054 45.1002V63.6879C37.0054 65.6248 37.2773 66.0665 39.3501 66.1685V66.6102H33.1995V66.1685Z" fill="white"/>
<path d="M40.7094 66.1685C42.7142 65.9986 43.0201 65.5908 43.0201 63.7898V57.2994C43.0201 55.2946 42.8162 55.1586 41.0152 54.8528V54.445C42.3404 54.1732 43.3259 53.8334 44.5152 53.1877V63.7898C44.5152 65.5908 44.8211 65.9986 46.8599 66.1685V66.6103H40.7094V66.1685ZM44.957 47.6488C44.957 48.2945 44.4133 48.9061 43.7676 48.9061C43.156 48.9061 42.5783 48.3284 42.5783 47.6488C42.5783 46.9012 43.156 46.3235 43.7676 46.3235C44.5152 46.3575 44.957 47.0032 44.957 47.6488Z" fill="white"/>
<path d="M48.2531 66.1685C50.1561 66.0326 50.4279 65.6588 50.4279 63.7219V54.6489H48.1852L48.0493 54.3091L48.8988 53.6635H50.4279C50.4279 52.3382 50.4619 50.911 50.6658 50.3333C50.9376 49.6877 51.4813 48.0566 53.0105 46.7653C54.1659 45.8138 55.2872 45.2701 56.3406 45.1002C57.428 45.1002 58.8892 46.0857 58.8892 46.7313C58.8892 47.377 58.1756 47.6828 57.9378 47.6828C57.8018 47.6828 57.6999 47.6148 57.564 47.4789C57.0203 46.9352 56.0348 46.5614 54.8455 46.5614C54.1319 46.5614 53.5202 46.7993 53.0105 47.343C52.5008 47.9206 51.9571 49.8236 51.9231 52.2362L51.8891 53.6635H55.695C55.763 53.8334 55.7969 53.9353 55.7969 54.1052C55.7969 54.3091 55.695 54.5809 55.4571 54.6829H51.8891V63.7558C51.8891 65.6928 52.127 66.1005 54.7435 66.2704V66.6442H48.1852V66.1685H48.2531Z" fill="white"/>
<path d="M65.8214 66.9501C65.7534 66.9501 65.1418 66.7122 64.8359 66.3724C64.4621 65.9646 64.3262 65.5908 64.1563 64.9112C62.933 65.8627 61.5398 66.9501 60.3844 66.9501C58.2436 66.9501 56.7824 65.319 56.7824 63.3821C56.7824 61.9888 57.7339 60.9694 59.9087 60.3238C61.5058 59.848 63.4767 59.1004 64.1903 58.6587C64.1903 57.1295 64.1563 54.4111 61.3699 54.4111C60.8601 54.445 59.1951 54.581 58.6514 57.0616C58.5834 57.2655 58.4135 57.6053 57.9717 57.6053C57.53 57.6053 57.0203 57.1635 57.0203 56.5519C57.0203 56.0761 57.3941 55.7023 57.9038 55.4305C58.6854 54.8868 60.7582 53.6295 62.2874 53.2897C63.8165 53.2897 65.7534 54.2751 65.7534 57.0276V63.7219C65.7534 65.0132 66.2292 65.4889 66.8748 65.4889C67.4185 65.4889 67.8942 65.285 68.234 65.0811L68.5059 65.6248L65.8214 66.9501ZM64.1563 59.4742C63.5107 59.848 61.5398 60.5956 60.8601 60.8675C59.4669 61.4112 58.6174 61.9888 58.6174 63.1442C58.6174 64.7753 59.9427 65.5908 61.064 65.5908C62.1174 65.5908 63.5107 64.8093 64.1903 63.9937V59.4742H64.1563Z" fill="white"/>
<path d="M13.0499 77.4174C12.5062 77.4854 12.5062 77.6213 12.5062 78.0291V78.8446C12.5062 79.1504 12.5062 79.4223 12.5742 79.6262C11.9965 79.7621 11.2149 80 10.4673 80C8.49644 80 7.10321 78.8106 7.10321 77.0776C7.10321 75.1067 8.76829 74.0533 10.5693 74.0533C11.3508 74.0533 12.0305 74.2232 12.3363 74.2912C12.3703 74.563 12.4043 75.0727 12.5062 75.6164L12.3703 75.6504C12.0644 74.495 11.3508 74.2572 10.4334 74.2572C8.70032 74.2572 7.78283 75.2766 7.78283 76.9417C7.78283 78.199 8.49643 79.7621 10.5013 79.7621C10.9771 79.7621 11.3848 79.6942 11.6567 79.6262C11.9285 79.5582 12.0305 79.4223 12.0305 79.0145V78.199C12.0305 77.6553 11.9965 77.4854 10.9431 77.4174V77.2815H13.0499V77.4174Z" fill="#D4B581" stroke="#D4B581" stroke-width="0.216" stroke-miterlimit="2.6131"/>
<path d="M19.6762 79.6941C20.1859 79.6262 20.3898 79.5582 20.3898 79.3543C20.3898 79.1165 20.1179 78.4029 19.7781 77.5873H17.7053C17.6033 77.7572 17.1616 78.9805 17.1616 79.2524C17.1616 79.5582 17.3994 79.6262 17.9092 79.6941V79.8301H15.8703V79.6941C16.5159 79.5582 16.6179 79.4903 16.9577 78.6747L18.9286 74.0873L19.0305 74.0533L19.6422 75.7184C20.05 76.8397 20.4577 77.9611 20.7976 78.8446C21.0694 79.5242 21.1374 79.6262 21.783 79.7281V79.8641H19.7102V79.6941H19.6762ZM18.7927 74.8688C18.4189 75.6844 18.0791 76.5339 17.7732 77.2815H19.6762L18.7927 74.8688Z" fill="#D4B581" stroke="#D4B581" stroke-width="0.216" stroke-miterlimit="2.6131"/>
<path d="M24.6035 79.6942C25.419 79.6602 25.487 79.4903 25.487 78.7767V75.1407C25.487 74.4271 25.419 74.3252 24.6714 74.2572V74.1213H26.8122C27.6957 74.1213 28.6812 74.3931 28.6812 75.5485C28.6812 76.3301 28.2734 76.7718 27.5938 77.0776C27.7297 77.3495 28.1035 77.9272 28.4093 78.3009C28.8511 78.8446 29.4627 79.6262 29.9385 79.7282L29.9045 79.8301C29.089 79.8301 28.6472 79.7961 27.288 77.5534C27.0501 77.2136 26.7782 77.2136 26.0307 77.2136V78.7087C26.0307 79.4223 26.0986 79.5922 26.8802 79.6262V79.7621H24.6714V79.6942H24.6035ZM26.5404 77.1116C27.0501 77.1116 27.3899 77.0437 27.6278 76.8398C27.9336 76.6019 28.1035 76.2281 28.1035 75.7184C28.1035 74.7669 27.4918 74.3252 26.5404 74.3252C26.3025 74.3252 26.1326 74.3252 26.0646 74.3591C26.0307 74.3591 25.9967 74.3931 25.9967 74.563V77.1116H26.5404Z" fill="#D4B581" stroke="#D4B581" stroke-width="0.216" stroke-miterlimit="2.6131"/>
<path d="M32.6909 79.6942C33.5065 79.6602 33.5744 79.4903 33.5744 78.7767V75.1747C33.5744 74.4611 33.5065 74.3252 32.7589 74.2912V74.1553H35.3754C36.4628 74.1553 37.3463 74.3252 37.89 74.8689C38.3658 75.3106 38.6376 75.9563 38.6376 76.7378C38.6376 79.1165 36.5648 79.7961 34.7638 79.7961H32.6909V79.6942ZM34.0502 78.7767C34.0502 79.4563 34.1861 79.6262 35.1036 79.6262C37.3123 79.6262 38.0599 78.199 38.0599 76.9757C38.0599 75.9563 37.6522 75.0048 36.8026 74.631C36.3949 74.4611 35.8172 74.3592 34.9337 74.3592C34.4579 74.3592 34.2201 74.3592 34.1521 74.3931C34.1181 74.3931 34.0841 74.3931 34.0841 74.563V78.7767H34.0502Z" fill="#D4B581" stroke="#D4B581" stroke-width="0.216" stroke-miterlimit="2.6131"/>
<path d="M41.7639 79.6942C42.6134 79.6602 42.6814 79.4903 42.6814 78.8107V75.2767C42.6814 74.4951 42.6134 74.3592 41.8659 74.3252V74.1893H45.7737C45.7737 74.4951 45.8077 75.0388 45.8416 75.5825L45.6717 75.6165C45.4679 74.699 45.2979 74.4271 44.2106 74.4271H43.395C43.1571 74.4271 43.1571 74.4611 43.1571 74.665V76.7718H44.2106C44.9242 76.7718 45.0941 76.6699 45.23 76.0922H45.3999V77.7573H45.23C45.0941 77.0777 44.8902 77.0097 44.2106 77.0097H43.1571V78.7767C43.1571 79.6262 43.5309 79.6262 44.2785 79.6262C44.8222 79.6262 45.3659 79.6262 45.6717 79.2864C45.8077 79.1165 46.0455 78.8107 46.1815 78.4029H46.3514C46.2834 78.7427 46.1135 79.5583 46.0116 79.8641H41.7979V79.6942H41.7639Z" fill="#D4B581" stroke="#D4B581" stroke-width="0.216" stroke-miterlimit="2.6131"/>
<path d="M49.2397 79.6942C49.7834 79.6602 50.0213 79.4903 50.0892 79.2184C50.1572 78.9466 50.1912 78.4369 50.1912 77.5534V75.5825C50.1912 74.7669 50.1572 74.8349 49.9873 74.631C49.8174 74.4611 49.6475 74.3591 49.1718 74.2912V74.1553H50.2931L54.4728 78.9126H54.5068V76.33C54.5068 74.563 54.5068 74.3252 53.4534 74.2572V74.1213H55.6961V74.2572C55.1864 74.2912 54.9485 74.4611 54.8806 74.7329C54.8126 75.0048 54.7786 75.4805 54.7786 76.33V79.8981H54.6767L50.497 75.1407H50.463V77.5534C50.463 78.4709 50.497 78.9466 50.531 79.2184C50.599 79.4903 50.8708 79.6602 51.4825 79.6942V79.8301H49.2397V79.6942Z" fill="#D4B581" stroke="#D4B581" stroke-width="0.216" stroke-miterlimit="2.6131"/>
<path d="M61.6429 75.4805C61.473 74.9708 61.2691 74.2572 60.3856 74.2572C59.7399 74.2572 59.4001 74.6649 59.4001 75.2766C59.4001 76.0242 59.9438 76.33 60.5555 76.6358C60.9633 76.8397 62.0506 77.2135 62.0506 78.3689C62.0506 79.3204 61.337 80 60.1817 80C59.8079 79.966 59.5021 79.932 59.2642 79.8641C59.0603 79.7961 58.9244 79.7281 58.8904 79.6941C58.8224 79.4563 58.7205 78.8106 58.6865 78.2669H58.8224C58.9584 78.7427 59.3661 79.7621 60.4196 79.7621C61.0992 79.7621 61.5409 79.3883 61.5409 78.5728C61.5409 77.6553 60.7933 77.3495 60.3176 77.0776C60.2496 77.0436 58.9244 76.6019 58.9244 75.5145C58.9244 74.7669 59.5361 74.0533 60.5895 74.0533C60.8953 74.0533 61.1332 74.0873 61.6429 74.2572C61.6769 74.563 61.7108 74.9028 61.7788 75.5145H61.6429V75.4805Z" fill="#D4B581" stroke="#D4B581" stroke-width="0.216" stroke-miterlimit="2.6131"/>
</svg>
