<svg width="103" height="121" viewBox="0 0 103 121" fill="none" xmlns="http://www.w3.org/2000/svg">
<path fill-rule="evenodd" clip-rule="evenodd" d="M51.2017 27.711H54.801V30.928H51.2017V27.711ZM47.0929 27.711H50.6921V30.928H47.0929V27.711ZM51.2017 23.8569H54.801V27.074H51.2017V23.8569ZM47.0929 23.8569H50.724V27.074H47.0929V23.8569ZM57.7313 29.6539C61.8084 33.6354 62.7321 32.6162 66.5861 30.4184C69.6757 28.6665 74.3898 30.6095 75.9824 33.1576C65.8217 37.7124 68.975 31.9791 64.7706 33.6036L66.1721 34.9095C67.892 36.1836 70.058 36.9161 72.3194 36.6613C74.5172 36.4065 78.0527 34.4954 79.1038 33.0302C66.5861 23.7295 65.1846 31.0873 62.4135 31.0554C60.5661 30.2591 59.4195 28.6984 57.7313 29.6539ZM53.2403 12.5496C54.3232 6.17923 53.081 5.57405 58.8462 3.02591C60.2476 10.8933 57.2854 11.9762 52.3166 14.3333C52.1254 16.531 51.6477 19.1429 52.8262 20.5444C53.6862 18.9836 53.4632 17.8051 53.5906 15.6392C58.2728 12.0718 61.4261 13.6007 60.1839 0.0318517C56.4891 1.11481 52.8262 3.6311 52.221 7.77182C51.6477 11.9444 52.444 11.7533 53.2403 12.5496ZM64.7706 21.2451C68.3698 22.4873 67.5735 17.0407 75.8868 21.7547C69.1024 29.1443 65.4076 21.9777 62.0632 22.5192C61.5854 22.6147 60.3432 23.1881 59.738 23.5703L57.8588 25.1629C60.7573 26.2777 60.598 23.6021 62.8276 23.8569C64.3246 24.048 65.5987 26.0866 68.0513 26.4369C71.9372 26.9784 76.6831 23.188 79.1994 21.8821C76.6513 18.0599 70.5994 16.2762 65.2802 20.6399C65.2165 20.7036 65.0572 21.0221 65.0254 20.9266C64.9617 20.8629 64.8343 21.1495 64.7706 21.2451ZM62.541 43.0317C59.0054 38.8909 65.5032 35.3873 56.2025 32.0747C56.7121 34.7502 57.8906 33.6991 59.961 35.865C59.9928 40.4198 59.6424 43.0954 62.7321 45.102C64.5795 46.3124 68.0831 48.3828 70.2809 49.0198C70.5357 41.3754 69.3891 38.2858 63.178 36.088C63.5284 40.1969 69.1343 36.8206 68.1787 46.4398C66.618 45.8665 63.4328 44.0828 62.541 43.0317ZM25.9752 21.691C34.5114 17.1681 33.3011 22.4873 37.1551 21.2451C36.8048 20.831 37.0277 20.9584 36.3588 20.417C34.607 18.9836 31.804 17.8051 29.5426 18.0918C27.2493 18.3784 23.8093 20.4488 22.6945 21.8503C24.3826 22.8058 28.1092 25.2903 30.1478 26.0547C34.3203 27.6154 36.4862 24.8125 39.4485 23.7295C39.8625 23.7614 41.6781 25.2903 42.9521 25.4177C43.8121 25.5132 43.6847 25.2903 44.067 25.1629C43.7166 24.8125 43.6847 24.7169 43.1433 24.271L39.8307 22.5192C37.4737 22.1369 31.6129 28.8577 25.9752 21.691ZM49.641 14.3014C44.4492 12.1355 41.901 10.5429 43.0796 3.02591C50.9788 6.4022 46.5832 7.3896 49.004 12.2629C50.1188 11.0844 49.5455 14.4925 49.864 10.0651C49.8958 9.61922 49.7366 7.67626 49.641 7.19849C49.3862 5.66961 48.7173 4.65035 47.921 3.82221C46.7106 2.61184 43.5892 0.573331 41.6781 0C40.4996 16.8814 46.5195 12.3266 48.3032 15.6392C48.5899 18.1236 48.0484 18.7288 49.0358 20.5444C50.3417 19.0792 49.864 17.9325 49.641 14.3014ZM25.9433 33.1258C26.8352 31.8199 25.2744 33.2532 27.0581 31.8517C36.3588 24.5577 35.4351 37.171 44.1944 29.6539C42.6018 28.6347 41.3277 30.1636 39.4485 30.9917C37.0914 31.1191 34.2248 23.8251 22.8537 33.0302C23.7774 34.4317 27.6952 36.5658 29.9885 36.725C32.9189 36.9161 35.7218 35.005 37.1233 33.5717C33.9063 32.3295 34.6707 37.3939 25.9433 33.1258ZM38.7159 18.7607C38.2381 14.6518 33.0144 18.251 33.6833 8.34515C35.69 8.95033 38.1425 10.4155 39.3529 11.817C43.2388 16.4036 35.8492 18.251 45.6277 22.7103C45.4047 20.1303 44.0033 20.9584 41.9966 18.9836C41.901 14.397 42.5062 12.2948 39.1299 9.81033C37.7922 8.82293 33.6833 6.33849 31.7085 5.89257C31.6448 11.5622 30.53 15.4481 38.7159 18.7607ZM42.8566 51.759C42.9521 43.3502 43.3662 43.4776 49.6092 40.4835C50.0232 37.3939 50.4373 35.6739 48.781 34.2406L48.3032 39.2413C46.3921 42.9043 40.9136 36.948 41.7418 54.8487C43.6529 54.2435 47.1884 52.1413 48.2395 50.8353C49.4499 49.3702 50.8195 44.5287 49.004 42.5857C47.8892 45.0065 49.7366 49.7842 42.8566 51.759ZM41.9329 35.8332C43.9077 33.8584 45.2455 34.6228 45.6277 31.8517L40.5314 35.2598C40.3085 39.6235 42.0922 43.5732 33.747 46.4398C32.7277 36.8206 38.3336 40.0058 38.7159 36.0561C31.5174 39.2732 31.2944 41.9487 31.8359 49.0198C42.0603 44.2102 41.9329 43.6687 41.9329 35.8332ZM61.3624 19.557C61.8402 15.2251 59.738 11.2437 68.2106 8.377C69.4209 18.0918 63.3054 14.4925 63.2417 18.7288C69.4209 16.4036 70.4083 13.5688 70.2491 5.86072C68.2106 6.33849 63.9743 8.91848 62.541 10.0651C59.4832 12.5177 60.7891 15.1296 59.8336 19.0473L57.795 20.4807C56.2025 21.6273 56.8395 20.9266 56.0751 22.7421C58.7506 21.7547 59.6424 21.3407 61.3624 19.557ZM52.3484 47.6183C53.0491 51.2813 56.7439 53.6064 60.1521 54.7531C62.2224 39.4324 55.3425 41.7895 53.7817 39.4324C53.2403 37.2984 53.941 36.5976 52.858 34.2724C51.6158 35.7376 52.0936 38.445 52.3803 40.4198C58.6232 44.0191 58.9417 42.4902 59.0691 51.759C51.9662 49.9753 54.9921 46.408 52.9217 42.4902C52.8262 42.5539 51.2336 41.7576 52.3484 47.6183Z" fill="#D4B581"/>
<path d="M0.357637 99.4858C4.24057 99.2814 4.59822 98.4128 4.59822 94.3255V76.5458C4.59822 72.5606 4.24058 71.6921 0 71.4366V70.7725H11.5977V71.4366C7.51042 71.6921 7.15278 72.5606 7.15278 76.5458V84.6693C8.07242 84.4649 9.19643 83.954 10.3204 83.1365C13.8457 80.2754 19.7212 73.889 19.7212 72.6628C19.7212 71.9987 18.9549 71.8454 16.5536 71.4366V70.7725H28.0491V71.4366C24.7793 71.8965 23.0933 72.8672 20.7431 74.9109C19.3125 76.137 14.7654 80.2244 11.1379 83.8518C14.7654 87.888 21.1007 94.4277 22.7356 95.9094C25.6478 98.515 26.4142 99.1792 28.8666 99.4858V100.15H23.0422C18.2907 95.2963 14.8676 91.9242 10.2183 86.7129C9.40079 85.8955 8.7877 85.4867 7.91915 85.4867C7.66369 85.4867 7.40824 85.5378 7.15278 85.5889V94.3766C7.20387 98.4639 7.51042 99.3325 11.8021 99.5368V100.201H0.357637V99.4858Z" fill="#0A4D50"/>
<path d="M45.0626 100.661C44.9604 100.661 44.0408 100.303 43.5809 99.7922C43.0189 99.1791 42.8146 98.6171 42.5591 97.5953C40.7198 99.0258 38.6251 100.661 36.888 100.661C33.6692 100.661 31.4723 98.2084 31.4723 95.2962C31.4723 93.2014 32.9029 91.6687 36.1727 90.698C38.574 89.9827 41.5373 88.8587 42.6102 88.1945C42.6102 85.8954 42.5591 81.8081 38.3696 81.8081C37.6032 81.8592 35.0998 82.0635 34.2823 85.7932C34.1801 86.0998 33.9247 86.6107 33.2605 86.6107C32.5963 86.6107 31.8299 85.9465 31.8299 85.0268C31.8299 84.3116 32.3919 83.7496 33.1583 83.3408C34.3334 82.5234 37.45 80.633 39.7491 80.1221C42.0482 80.1221 44.9604 81.6037 44.9604 85.7421V95.8071C44.9604 97.7486 45.6757 98.4638 46.6464 98.4638C47.4639 98.4638 48.1791 98.1573 48.6901 97.8507L49.0988 98.6682L45.0626 100.661ZM42.5591 89.4207C41.5884 89.9827 38.6251 91.1067 37.6032 91.5154C35.5085 92.3329 34.2312 93.2014 34.2312 94.9385C34.2312 97.3909 36.2238 98.6171 37.9098 98.6171C39.4936 98.6171 41.5884 97.442 42.6102 96.2158V89.4207H42.5591Z" fill="#0A4D50"/>
<path d="M49.9161 99.4857C52.9305 99.2813 53.3903 98.6171 53.3903 95.756V73.7868C53.3903 70.568 53.0327 70.2104 50.0183 69.9549V69.3929C52.3174 69.0864 54.872 68.2689 55.6384 67.8091V95.756C55.6384 98.6682 56.0471 99.3324 59.1637 99.4857V100.15H49.9161V99.4857Z" fill="#0A4D50"/>
<path d="M61.2074 99.4857C64.2218 99.2303 64.6816 98.6172 64.6816 95.9094V86.1509C64.6816 83.1365 64.3751 82.9322 61.6672 82.4724V81.8593C63.6598 81.4505 65.1414 80.9396 66.9296 79.9689V95.9094C66.9296 98.6172 67.3894 99.2303 70.4549 99.4857V100.15H61.2074V99.4857ZM67.5938 71.641C67.5938 72.6117 66.7763 73.5314 65.8056 73.5314C64.886 73.5314 64.0174 72.6628 64.0174 71.641C64.0174 70.517 64.886 69.6484 65.8056 69.6484C66.9296 69.6995 67.5938 70.6703 67.5938 71.641Z" fill="#0A4D50"/>
<path d="M72.5497 99.4857C75.4108 99.2813 75.8196 98.7193 75.8196 95.8071V82.1657H72.4475L72.2432 81.6548L73.5204 80.6841H75.8196C75.8196 78.6915 75.8706 76.5457 76.1772 75.6771C76.5859 74.7064 77.4034 72.254 79.7025 70.3126C81.4396 68.882 83.1256 68.0645 84.7094 67.8091C86.3444 67.8091 88.5413 69.2907 88.5413 70.2615C88.5413 71.2322 87.4684 71.692 87.1107 71.692C86.9064 71.692 86.7531 71.5898 86.5487 71.3855C85.7313 70.568 84.2496 70.006 82.4614 70.006C81.3885 70.006 80.4689 70.3636 79.7025 71.1811C78.9361 72.0497 78.1187 74.9108 78.0676 78.5382L78.0165 80.6841H83.7387C83.8409 80.9395 83.892 81.0928 83.892 81.3483C83.892 81.6548 83.7387 82.0635 83.3811 82.2168H78.0165V95.8582C78.0165 98.7704 78.3741 99.3835 82.3081 99.639V100.201H72.4475V99.4857H72.5497Z" fill="#0A4D50"/>
<path d="M98.9639 100.661C98.8618 100.661 97.9421 100.303 97.4823 99.7922C96.9203 99.1791 96.7159 98.6171 96.4605 97.5953C94.6212 99.0258 92.5264 100.661 90.7893 100.661C87.5706 100.661 85.3737 98.2084 85.3737 95.2962C85.3737 93.2014 86.8042 91.6687 90.0741 90.698C92.4754 89.9827 95.4386 88.8587 96.5116 88.1945C96.5116 85.8954 96.4605 81.8081 92.271 81.8081C91.5046 81.8592 89.0011 82.0635 88.1837 85.7932C88.0815 86.0998 87.826 86.6107 87.1619 86.6107C86.4977 86.6107 85.7313 85.9465 85.7313 85.0268C85.7313 84.3116 86.2933 83.7496 87.0597 83.3408C88.2348 82.5234 91.3513 80.633 93.6505 80.1221C95.9496 80.1221 98.8618 81.6037 98.8618 85.7421V95.8071C98.8618 97.7486 99.577 98.4638 100.548 98.4638C101.365 98.4638 102.081 98.1573 102.591 97.8507L103 98.6682L98.9639 100.661ZM96.4605 89.4207C95.4897 89.9827 92.5264 91.1067 91.5046 91.5154C89.4099 92.3329 88.1326 93.2014 88.1326 94.9385C88.1326 97.3909 90.1251 98.6171 91.8112 98.6171C93.395 98.6171 95.4897 97.442 96.5116 96.2158V89.4207H96.4605Z" fill="#0A4D50"/>
<path d="M19.6207 116.399C18.8032 116.501 18.8032 116.705 18.8032 117.318V118.545C18.8032 119.004 18.8032 119.413 18.9054 119.72C18.0368 119.924 16.8617 120.282 15.7377 120.282C12.7744 120.282 10.6797 118.493 10.6797 115.888C10.6797 112.925 13.1832 111.341 15.891 111.341C17.0661 111.341 18.0879 111.596 18.5477 111.698C18.5988 112.107 18.6499 112.873 18.8032 113.691L18.5988 113.742C18.139 112.005 17.0661 111.647 15.6866 111.647C13.081 111.647 11.7015 113.18 11.7015 115.683C11.7015 117.574 12.7744 119.924 15.7888 119.924C16.5041 119.924 17.1172 119.822 17.5259 119.72C17.9346 119.617 18.0879 119.413 18.0879 118.8V117.574C18.0879 116.756 18.0368 116.501 16.453 116.399V116.194H19.6207V116.399Z" fill="#D4B581" stroke="#D4B581" stroke-width="0.216" stroke-miterlimit="2.6131"/>
<path d="M29.5834 119.822C30.3498 119.72 30.6563 119.617 30.6563 119.311C30.6563 118.953 30.2476 117.88 29.7367 116.654H26.6201C26.4669 116.91 25.8027 118.749 25.8027 119.158C25.8027 119.617 26.1603 119.72 26.9267 119.822V120.026H23.8612V119.822C24.8319 119.617 24.9852 119.515 25.4961 118.289L28.4594 111.392L28.6127 111.341L29.5323 113.844C30.1454 115.53 30.7585 117.216 31.2694 118.545C31.6782 119.566 31.7804 119.72 32.7511 119.873V120.077H29.6345V119.822H29.5834ZM28.2551 112.567C27.6931 113.793 27.1821 115.07 26.7223 116.194H29.5834L28.2551 112.567Z" fill="#D4B581" stroke="#D4B581" stroke-width="0.216" stroke-miterlimit="2.6131"/>
<path d="M36.9917 119.822C38.2179 119.771 38.3201 119.515 38.3201 118.442V112.976C38.3201 111.903 38.2179 111.749 37.0939 111.647V111.443H40.3126C41.641 111.443 43.1227 111.852 43.1227 113.589C43.1227 114.764 42.5096 115.428 41.4877 115.888C41.6921 116.297 42.2541 117.165 42.7139 117.727C43.3781 118.545 44.2978 119.72 45.013 119.873L44.9619 120.026C43.7358 120.026 43.0716 119.975 41.0279 116.603C40.6703 116.092 40.2615 116.092 39.1375 116.092V118.34C39.1375 119.413 39.2397 119.669 40.4148 119.72V119.924H37.0939V119.822H36.9917ZM39.9039 115.939C40.6703 115.939 41.1812 115.837 41.5388 115.53C41.9986 115.173 42.2541 114.611 42.2541 113.844C42.2541 112.414 41.3345 111.749 39.9039 111.749C39.5463 111.749 39.2908 111.749 39.1886 111.801C39.1375 111.801 39.0864 111.852 39.0864 112.107V115.939H39.9039Z" fill="#D4B581" stroke="#D4B581" stroke-width="0.216" stroke-miterlimit="2.6131"/>
<path d="M49.1515 119.822C50.3777 119.771 50.4799 119.515 50.4799 118.443V113.027C50.4799 111.954 50.3777 111.75 49.2537 111.699V111.494H53.1877C54.8226 111.494 56.151 111.75 56.9685 112.567C57.6837 113.231 58.0925 114.202 58.0925 115.377C58.0925 118.953 54.9759 119.975 52.2681 119.975H49.1515V119.822ZM51.1951 118.443C51.1951 119.464 51.3995 119.72 52.779 119.72C56.0999 119.72 57.2239 117.574 57.2239 115.735C57.2239 114.202 56.6108 112.771 55.3335 112.209C54.7204 111.954 53.8519 111.801 52.5235 111.801C51.8082 111.801 51.4506 111.801 51.3484 111.852C51.2973 111.852 51.2462 111.852 51.2462 112.107V118.443H51.1951Z" fill="#D4B581" stroke="#D4B581" stroke-width="0.216" stroke-miterlimit="2.6131"/>
<path d="M62.7927 119.822C64.07 119.771 64.1722 119.515 64.1722 118.494V113.18C64.1722 112.005 64.07 111.801 62.946 111.75V111.545H68.8215C68.8215 112.005 68.8726 112.822 68.9237 113.64L68.6682 113.691C68.3617 112.312 68.1062 111.903 66.4713 111.903H65.2451C64.8875 111.903 64.8875 111.954 64.8875 112.26V115.428H66.4713C67.5442 115.428 67.7997 115.275 68.004 114.406H68.2595V116.91H68.004C67.7997 115.888 67.4931 115.786 66.4713 115.786H64.8875V118.442C64.8875 119.72 65.4495 119.72 66.5735 119.72C67.3909 119.72 68.2084 119.72 68.6682 119.209C68.8726 118.953 69.2302 118.494 69.4346 117.88H69.69C69.5879 118.391 69.3324 119.618 69.1791 120.077H62.8438V119.822H62.7927Z" fill="#D4B581" stroke="#D4B581" stroke-width="0.216" stroke-miterlimit="2.6131"/>
<path d="M74.033 119.822C74.8504 119.771 75.2081 119.515 75.3102 119.107C75.4124 118.698 75.4635 117.931 75.4635 116.603V113.64C75.4635 112.414 75.4124 112.516 75.157 112.209C74.9015 111.954 74.6461 111.801 73.9308 111.698V111.494H75.6168L81.901 118.647H81.9521V114.764C81.9521 112.107 81.9521 111.749 80.3683 111.647V111.443H83.7403V111.647C82.9739 111.698 82.6163 111.954 82.5141 112.363C82.4119 112.771 82.3608 113.487 82.3608 114.764V120.128H82.2076L75.9233 112.976H75.8723V116.603C75.8723 117.983 75.9233 118.698 75.9744 119.107C76.0766 119.515 76.4854 119.771 77.405 119.822V120.026H74.033V119.822Z" fill="#D4B581" stroke="#D4B581" stroke-width="0.216" stroke-miterlimit="2.6131"/>
<path d="M92.6812 113.487C92.4257 112.72 92.1191 111.647 90.7908 111.647C89.82 111.647 89.3091 112.26 89.3091 113.18C89.3091 114.304 90.1266 114.764 91.0462 115.224C91.6593 115.53 93.2942 116.092 93.2942 117.829C93.2942 119.26 92.2213 120.282 90.4842 120.282C89.9222 120.231 89.4624 120.179 89.1048 120.077C88.7982 119.975 88.5938 119.873 88.5428 119.822C88.4406 119.464 88.2873 118.493 88.2362 117.676H88.4406C88.6449 118.391 89.258 119.924 90.8419 119.924C91.8637 119.924 92.5279 119.362 92.5279 118.136C92.5279 116.756 91.4039 116.297 90.6886 115.888C90.5864 115.837 88.5938 115.173 88.5938 113.538C88.5938 112.414 89.5135 111.341 91.0973 111.341C91.5571 111.341 91.9148 111.392 92.6812 111.647C92.7322 112.107 92.7833 112.618 92.8855 113.538H92.6812V113.487Z" fill="#D4B581" stroke="#D4B581" stroke-width="0.216" stroke-miterlimit="2.6131"/>
</svg>
